P1
13 5
1110011010010
0100100011010
0100011010110
0100001010010
1110110010010
